<?xml version="1.0" encoding="us-ascii" standalone="no"?><svg xmlns="http://www.w3.org/2000/svg" xmlns:xlink="http://www.w3.org/1999/xlink" contentStyleType="text/css" height="827px" preserveAspectRatio="none" style="width:1219px;height:827px;background:#FFFFFF;" version="1.1" viewBox="0 0 1219 827" width="1219px" zoomAndPan="magnify"><defs/><g><!--class Animal--><g id="elem_Animal"><rect codeLine="3" fill="#F1F1F1" height="123.7813" id="Animal" rx="2.5" ry="2.5" style="stroke:#181818;stroke-width:0.5;" width="167" x="737.5" y="15"/><text fill="#000000" font-family="sans-serif" font-size="14" lengthAdjust="spacing" textLength="49" x="796.5" y="32.9951">Animal</text><line style="stroke:#181818;stroke-width:0.5;" x1="738.5" x2="903.5" y1="41.2969" y2="41.2969"/><text fill="#000000" font-family="sans-serif" font-size="14" lengthAdjust="spacing" textLength="87" x="743.5" y="58.292">nom : string</text><text fill="#000000" font-family="sans-serif" font-size="14" lengthAdjust="spacing" textLength="107" x="743.5" y="74.5889">esp&#232;ce : string</text><text fill="#000000" font-family="sans-serif" font-size="14" lengthAdjust="spacing" textLength="155" x="743.5" y="90.8857">dateNaissance : DATE</text><text fill="#000000" font-family="sans-serif" font-size="14" lengthAdjust="spacing" textLength="111" x="743.5" y="107.1826">numPuceId : int</text><text fill="#000000" font-family="sans-serif" font-size="14" lengthAdjust="spacing" textLength="136" x="743.5" y="123.4795">numPasseport : int</text><line style="stroke:#181818;stroke-width:0.5;" x1="738.5" x2="903.5" y1="130.7813" y2="130.7813"/></g><!--class DossierM?dical--><g id="elem_DossierM&#233;dical"><rect codeLine="12" fill="#F1F1F1" height="156.375" id="DossierM&#233;dical" rx="2.5" ry="2.5" style="stroke:#181818;stroke-width:0.5;" width="222" x="227" y="496"/><text fill="#000000" font-family="sans-serif" font-size="14" lengthAdjust="spacing" textLength="107" x="284.5" y="513.9951">DossierM&#233;dical</text><line style="stroke:#181818;stroke-width:0.5;" x1="228" x2="448" y1="522.2969" y2="522.2969"/><text fill="#000000" font-family="sans-serif" font-size="14" lengthAdjust="spacing" textLength="185" x="233" y="539.292">mesureTaille : int &lt;NULL&gt;</text><text fill="#000000" font-family="sans-serif" font-size="14" lengthAdjust="spacing" textLength="185" x="233" y="555.5889">mesurePoids : int &lt;NULL&gt;</text><text fill="#000000" font-family="sans-serif" font-size="14" lengthAdjust="spacing" textLength="177" x="233" y="571.8857">d&#233;butTraitement : DATE</text><text fill="#000000" font-family="sans-serif" font-size="14" lengthAdjust="spacing" textLength="156" x="233" y="588.1826">dur&#233;eTraitement : int</text><text fill="#000000" font-family="sans-serif" font-size="14" lengthAdjust="spacing" textLength="206" x="233" y="604.4795">observationG&#233;n&#233;rale : string</text><text fill="#000000" font-family="sans-serif" font-size="14" lengthAdjust="spacing" textLength="210" x="233" y="620.7764">descriptionProc&#233;dure : string</text><text fill="#000000" font-family="sans-serif" font-size="14" lengthAdjust="spacing" textLength="125" x="233" y="637.0732">saisie : DATETIME</text><line style="stroke:#181818;stroke-width:0.5;" x1="228" x2="448" y1="644.375" y2="644.375"/></g><g id="elem_GMN4"><path d="M484.5,554 L484.5,570 L449.1,574 L484.5,578 L484.5,594.2656 A0,0 0 0 0 484.5,594.2656 L757.5,594.2656 A0,0 0 0 0 757.5,594.2656 L757.5,564 L747.5,554 L484.5,554 A0,0 0 0 0 484.5,554 " fill="#FEFFDD" style="stroke:#181818;stroke-width:0.5;"/><path d="M747.5,554 L747.5,564 L757.5,564 L747.5,554 " fill="#FEFFDD" style="stroke:#181818;stroke-width:0.5;"/><text fill="#000000" font-family="sans-serif" font-size="13" lengthAdjust="spacing" textLength="248" x="490.5" y="571.0669">Si mesureTaille est NULL, mesurePoids</text><text fill="#000000" font-family="sans-serif" font-size="13" lengthAdjust="spacing" textLength="238" x="490.5" y="586.1997">ne l'est pas et r&#233;ciproquement (XOR)</text></g><!--class Humain--><g id="elem_Humain"><rect codeLine="28" fill="#F1F1F1" height="123.7813" id="Humain" rx="2.5" ry="2.5" style="stroke:#181818;stroke-width:0.5;" width="170" x="1036" y="512"/><text fill="#000000" font-family="sans-serif" font-size="14" font-style="italic" lengthAdjust="spacing" textLength="56" x="1093" y="529.9951">Humain</text><line style="stroke:#181818;stroke-width:0.5;" x1="1037" x2="1205" y1="538.2969" y2="538.2969"/><text fill="#000000" font-family="sans-serif" font-size="14" lengthAdjust="spacing" textLength="87" x="1042" y="555.292">nom : string</text><text fill="#000000" font-family="sans-serif" font-size="14" lengthAdjust="spacing" textLength="112" x="1042" y="571.5889">pr&#233;nom : string</text><text fill="#000000" font-family="sans-serif" font-size="14" lengthAdjust="spacing" textLength="158" x="1042" y="587.8857">date naissance : DATE</text><text fill="#000000" font-family="sans-serif" font-size="14" lengthAdjust="spacing" textLength="110" x="1042" y="604.1826">adresse : string</text><text fill="#000000" font-family="sans-serif" font-size="14" lengthAdjust="spacing" textLength="75" x="1042" y="620.4795">tel : string</text><line style="stroke:#181818;stroke-width:0.5;" x1="1037" x2="1205" y1="627.7813" y2="627.7813"/></g><!--class Client--><g id="elem_Client"><rect codeLine="36" fill="#F1F1F1" height="42.2969" id="Client" rx="2.5" ry="2.5" style="stroke:#181818;stroke-width:0.5;" width="49" x="1043.5" y="368.5"/><text fill="#000000" font-family="sans-serif" font-size="14" lengthAdjust="spacing" textLength="43" x="1046.5" y="386.4951">Client</text><line style="stroke:#181818;stroke-width:0.5;" x1="1044.5" x2="1091.5" y1="394.7969" y2="394.7969"/><line style="stroke:#181818;stroke-width:0.5;" x1="1044.5" x2="1091.5" y1="402.7969" y2="402.7969"/></g><!--class AssociationAnimalClient--><g id="elem_AssociationAnimalClient"><rect codeLine="40" fill="#F1F1F1" height="74.8906" id="AssociationAnimalClient" rx="2.5" ry="2.5" style="stroke:#181818;stroke-width:0.5;" width="180" x="1032" y="208"/><text fill="#000000" font-family="sans-serif" font-size="14" lengthAdjust="spacing" textLength="174" x="1035" y="225.9951">AssociationAnimalClient</text><line style="stroke:#181818;stroke-width:0.5;" x1="1033" x2="1211" y1="234.2969" y2="234.2969"/><text fill="#000000" font-family="sans-serif" font-size="14" lengthAdjust="spacing" textLength="95" x="1038" y="251.292">d&#233;but : DATE</text><text fill="#000000" font-family="sans-serif" font-size="14" lengthAdjust="spacing" textLength="71" x="1038" y="267.5889">fin : DATE</text><line style="stroke:#181818;stroke-width:0.5;" x1="1033" x2="1211" y1="274.8906" y2="274.8906"/></g><!--class AssociationAnimalPersonnel--><g id="elem_AssociationAnimalPersonnel"><rect codeLine="45" fill="#F1F1F1" height="74.8906" id="AssociationAnimalPersonnel" rx="2.5" ry="2.5" style="stroke:#181818;stroke-width:0.5;" width="208" x="645" y="208"/><text fill="#000000" font-family="sans-serif" font-size="14" lengthAdjust="spacing" textLength="202" x="648" y="225.9951">AssociationAnimalPersonnel</text><line style="stroke:#181818;stroke-width:0.5;" x1="646" x2="852" y1="234.2969" y2="234.2969"/><text fill="#000000" font-family="sans-serif" font-size="14" lengthAdjust="spacing" textLength="95" x="651" y="251.292">d&#233;but : DATE</text><text fill="#000000" font-family="sans-serif" font-size="14" lengthAdjust="spacing" textLength="71" x="651" y="267.5889">fin : DATE</text><line style="stroke:#181818;stroke-width:0.5;" x1="646" x2="852" y1="274.8906" y2="274.8906"/></g><!--class Personnel--><g id="elem_Personnel"><rect codeLine="50" fill="#F1F1F1" height="58.5938" id="Personnel" rx="2.5" ry="2.5" style="stroke:#181818;stroke-width:0.5;" width="287" x="540.5" y="360"/><text fill="#000000" font-family="sans-serif" font-size="14" lengthAdjust="spacing" textLength="71" x="648.5" y="377.9951">Personnel</text><line style="stroke:#181818;stroke-width:0.5;" x1="541.5" x2="826.5" y1="386.2969" y2="386.2969"/><text fill="#000000" font-family="sans-serif" font-size="14" lengthAdjust="spacing" textLength="275" x="546.5" y="403.292">poste : string {v&#233;t&#233;rinaire / assistant}</text><line style="stroke:#181818;stroke-width:0.5;" x1="541.5" x2="826.5" y1="410.5938" y2="410.5938"/></g><!--class M?dicament--><g id="elem_M&#233;dicament"><rect codeLine="54" fill="#F1F1F1" height="91.1875" id="M&#233;dicament" rx="2.5" ry="2.5" style="stroke:#181818;stroke-width:0.5;" width="222" x="7" y="729"/><text fill="#000000" font-family="sans-serif" font-size="14" lengthAdjust="spacing" textLength="89" x="73.5" y="746.9951">M&#233;dicament</text><line style="stroke:#181818;stroke-width:0.5;" x1="8" x2="228" y1="755.2969" y2="755.2969"/><text fill="#000000" font-family="sans-serif" font-size="14" lengthAdjust="spacing" textLength="160" x="13" y="772.292">nomMol : string {key}</text><text fill="#000000" font-family="sans-serif" font-size="14" lengthAdjust="spacing" textLength="137" x="13" y="788.5889">description : string</text><text fill="#000000" font-family="sans-serif" font-size="14" lengthAdjust="spacing" textLength="210" x="13" y="804.8857">quantit&#233;M&#233;dicamentJour : int</text><line style="stroke:#181818;stroke-width:0.5;" x1="8" x2="228" y1="812.1875" y2="812.1875"/></g><!--class R?sultatsAnalyse--><g id="elem_R&#233;sultatsAnalyse"><rect codeLine="61" fill="#F1F1F1" height="58.5938" id="R&#233;sultatsAnalyse" rx="2.5" ry="2.5" style="stroke:#181818;stroke-width:0.5;" width="128" x="284" y="745"/><text fill="#000000" font-family="sans-serif" font-size="14" lengthAdjust="spacing" textLength="122" x="287" y="762.9951">R&#233;sultatsAnalyse</text><line style="stroke:#181818;stroke-width:0.5;" x1="285" x2="411" y1="771.2969" y2="771.2969"/><text fill="#000000" font-family="sans-serif" font-size="14" lengthAdjust="spacing" textLength="81" x="290" y="788.292">lien : string</text><line style="stroke:#181818;stroke-width:0.5;" x1="285" x2="411" y1="795.5938" y2="795.5938"/></g><!--class Especes--><g id="elem_Especes"><rect codeLine="65" fill="#F1F1F1" height="58.5938" id="Especes" rx="2.5" ry="2.5" style="stroke:#181818;stroke-width:0.5;" width="167" x="14.5" y="544.5"/><text fill="#000000" font-family="sans-serif" font-size="14" lengthAdjust="spacing" textLength="59" x="68.5" y="562.4951">Especes</text><line style="stroke:#181818;stroke-width:0.5;" x1="15.5" x2="180.5" y1="570.7969" y2="570.7969"/><text fill="#000000" font-family="sans-serif" font-size="14" lengthAdjust="spacing" textLength="155" x="20.5" y="587.792">espece : string {key}</text><line style="stroke:#181818;stroke-width:0.5;" x1="15.5" x2="180.5" y1="595.0938" y2="595.0938"/></g><!--class CategorieAnimal--><g id="elem_CategorieAnimal"><rect codeLine="69" fill="#F1F1F1" height="74.8906" id="CategorieAnimal" rx="2.5" ry="2.5" style="stroke:#181818;stroke-width:0.5;" width="208" x="793" y="536.5"/><text fill="#000000" font-family="sans-serif" font-size="14" lengthAdjust="spacing" textLength="120" x="837" y="554.4951">CategorieAnimal</text><line style="stroke:#181818;stroke-width:0.5;" x1="794" x2="1000" y1="562.7969" y2="562.7969"/><text fill="#000000" font-family="sans-serif" font-size="14" lengthAdjust="spacing" textLength="169" x="799" y="579.792">taille : typeTaille {key}</text><text fill="#000000" font-family="sans-serif" font-size="14" lengthAdjust="spacing" textLength="196" x="799" y="596.0889">espece : typeAnimal {key}</text><line style="stroke:#181818;stroke-width:0.5;" x1="794" x2="1000" y1="603.3906" y2="603.3906"/></g><!--class TypeTaille--><g id="elem_TypeTaille"><rect codeLine="74" fill="#F1F1F1" height="91.1875" id="TypeTaille" rx="2.5" ry="2.5" style="stroke:#181818;stroke-width:0.5;" width="80" x="940" y="31.5"/><text fill="#000000" font-family="sans-serif" font-size="14" lengthAdjust="spacing" textLength="74" x="943" y="49.4951">TypeTaille</text><line style="stroke:#181818;stroke-width:0.5;" x1="941" x2="1019" y1="57.7969" y2="57.7969"/><text fill="#000000" font-family="sans-serif" font-size="14" lengthAdjust="spacing" textLength="46" x="946" y="74.792">petite</text><text fill="#000000" font-family="sans-serif" font-size="14" lengthAdjust="spacing" textLength="67" x="946" y="91.0889">moyenne</text><text fill="#000000" font-family="sans-serif" font-size="14" lengthAdjust="spacing" textLength="38" x="946" y="107.3857">autre</text><line style="stroke:#181818;stroke-width:0.5;" x1="941" x2="1019" y1="114.6875" y2="114.6875"/></g><!--class TypeAnimal--><g id="elem_TypeAnimal"><rect codeLine="81" fill="#F1F1F1" height="140.0781" id="TypeAnimal" rx="2.5" ry="2.5" style="stroke:#181818;stroke-width:0.5;" width="91" x="1055.5" y="7"/><text fill="#000000" font-family="sans-serif" font-size="14" lengthAdjust="spacing" textLength="85" x="1058.5" y="24.9951">TypeAnimal</text><line style="stroke:#181818;stroke-width:0.5;" x1="1056.5" x2="1145.5" y1="33.2969" y2="33.2969"/><text fill="#000000" font-family="sans-serif" font-size="14" lengthAdjust="spacing" textLength="32" x="1061.5" y="50.292">f&#233;lin</text><text fill="#000000" font-family="sans-serif" font-size="14" lengthAdjust="spacing" textLength="47" x="1061.5" y="66.5889">canid&#233;</text><text fill="#000000" font-family="sans-serif" font-size="14" lengthAdjust="spacing" textLength="49" x="1061.5" y="82.8857">reptile</text><text fill="#000000" font-family="sans-serif" font-size="14" lengthAdjust="spacing" textLength="56" x="1061.5" y="99.1826">rongeur</text><text fill="#000000" font-family="sans-serif" font-size="14" lengthAdjust="spacing" textLength="45" x="1061.5" y="115.4795">oiseau</text><text fill="#000000" font-family="sans-serif" font-size="14" lengthAdjust="spacing" textLength="38" x="1061.5" y="131.7764">autre</text><line style="stroke:#181818;stroke-width:0.5;" x1="1056.5" x2="1145.5" y1="139.0781" y2="139.0781"/></g><ellipse cx="995" cy="245.5" fill="#181818" rx="2" ry="2" style="stroke:#181818;stroke-width:1.0;"/><ellipse cx="608" cy="245.5" fill="#181818" rx="2" ry="2" style="stroke:#181818;stroke-width:1.0;"/><!--link Client to Humain--><g id="link_Client_Humain"><path codeLine="91" d="M1073.87,410.728 C1080.91,434.95 1088.0008,459.3589 1098.1808,494.4189 " fill="none" id="Client-to-Humain" style="stroke:#181818;stroke-width:1.0;"/><polygon fill="none" points="1103.2,511.705,1103.9429,492.7459,1092.4188,496.092,1103.2,511.705" style="stroke:#181818;stroke-width:1.0;"/><polygon fill="#000000" points="1095.3948,462.3679,1095.6939,452.8621,1090.0493,454.5017,1095.3948,462.3679" style="stroke:#000000;stroke-width:1.0;"/><text fill="#000000" font-family="sans-serif" font-size="13" lengthAdjust="spacing" textLength="40" x="1103" y="462.0669">est un</text></g><!--link Personnel to Humain--><g id="link_Personnel_Humain"><path codeLine="92" d="M811.612,419.017 C876.015,436.271 954.044,461.658 1019,496 C1027.83,500.667 1021.7071,496.1114 1030.3471,501.8514 " fill="none" id="Personnel-to-Humain" style="stroke:#181818;stroke-width:1.0;"/><polygon fill="none" points="1045.34,511.812,1033.6673,496.8538,1027.0269,506.8491,1045.34,511.812" style="stroke:#181818;stroke-width:1.0;"/><polygon fill="#000000" points="958.6759,459.3372,951.2579,453.3854,949.1763,458.8823,958.6759,459.3372" style="stroke:#000000;stroke-width:1.0;"/><text fill="#000000" font-family="sans-serif" font-size="13" lengthAdjust="spacing" textLength="40" x="963" y="462.0669">est un</text></g><!--link Animal to DossierM?dical--><g id="link_Animal_DossierM&#233;dical"><path codeLine="94" d="M737.351,113.029 C690.052,135.538 631.802,168.038 588,208 C495.938,291.991 420.15,416.133 376.987,495.794 " fill="none" id="Animal-DossierM&#233;dical" style="stroke:#181818;stroke-width:1.0;"/><polygon fill="#000000" points="495.5726,325.2069,503.9126,320.6358,499.633,316.6066,495.5726,325.2069" style="stroke:#000000;stroke-width:1.0;"/><text fill="#000000" font-family="sans-serif" font-size="13" lengthAdjust="spacing" textLength="54" x="508" y="326.0669">poss&#232;de</text><text fill="#000000" font-family="sans-serif" font-size="13" lengthAdjust="spacing" textLength="8" x="721.5448" y="112.6524">1</text><text fill="#000000" font-family="sans-serif" font-size="13" lengthAdjust="spacing" textLength="7" x="373.2585" y="484.9487">*</text></g><!--link DossierM?dical to M?dicament--><g id="link_DossierM&#233;dical_M&#233;dicament"><path codeLine="95" d="M253.646,652.241 C236.588,667.767 218.75,683.938 202,699 C191.274,708.645 179.731,718.939 168.738,728.701 " fill="none" id="DossierM&#233;dical-M&#233;dicament" style="stroke:#181818;stroke-width:1.0;"/><polygon fill="#000000" points="222.2845,693.9123,230.9726,690.0435,227.0393,685.6756,222.2845,693.9123" style="stroke:#000000;stroke-width:1.0;"/><text fill="#000000" font-family="sans-serif" font-size="13" lengthAdjust="spacing" textLength="52" x="235" y="695.0669">contient</text><text fill="#000000" font-family="sans-serif" font-size="13" lengthAdjust="spacing" textLength="7" x="238.2724" y="672.4685">*</text><text fill="#000000" font-family="sans-serif" font-size="13" lengthAdjust="spacing" textLength="7" x="168.6761" y="717.9356">*</text></g><!--link DossierM?dical to R?sultatsAnalyse--><g id="link_DossierM&#233;dical_R&#233;sultatsAnalyse"><path codeLine="96" d="M341.881,652.029 C343.517,684.505 345.321,720.3264 346.544,744.5974 " fill="none" id="DossierM&#233;dical-R&#233;sultatsAnalyse" style="stroke:#181818;stroke-width:1.0;"/><polygon fill="#000000" points="350.2515,695.5601,352.7317,686.3786,346.8613,686.6743,350.2515,695.5601" style="stroke:#000000;stroke-width:1.0;"/><text fill="#000000" font-family="sans-serif" font-size="13" lengthAdjust="spacing" textLength="52" x="359" y="695.0669">contient</text><text fill="#000000" font-family="sans-serif" font-size="13" lengthAdjust="spacing" textLength="7" x="334.9185" y="672.5032">*</text><text fill="#000000" font-family="sans-serif" font-size="13" lengthAdjust="spacing" textLength="7" x="338.5218" y="734.0056">*</text></g><!--link Personnel to DossierM?dical--><g id="link_Personnel_DossierM&#233;dical"><path codeLine="97" d="M621.554,419.124 C577.801,439.599 518.229,468.323 467,496 C461.148,499.161 455.183,502.457 449.183,505.829 " fill="none" id="Personnel-DossierM&#233;dical" style="stroke:#181818;stroke-width:1.0;"/><polygon fill="#000000" points="556.5333,459.8132,565.9343,458.3742,563.293,453.1232,556.5333,459.8132" style="stroke:#000000;stroke-width:1.0;"/><text fill="#000000" font-family="sans-serif" font-size="13" lengthAdjust="spacing" textLength="33" x="570" y="462.0669">a fait</text><text fill="#000000" font-family="sans-serif" font-size="13" lengthAdjust="spacing" textLength="7" x="601.5709" y="438.5527">*</text><text fill="#000000" font-family="sans-serif" font-size="13" lengthAdjust="spacing" textLength="7" x="456.8883" y="497.8036">*</text></g><!--link Especes to M?dicament--><g id="link_Especes_M&#233;dicament"><path codeLine="99" d="M94.4996,603.742 C92.0907,628.988 90.1177,666.634 95,699 C96.474,708.771 98.9775,719.027 101.8036,728.6978 " fill="none" id="Especes-M&#233;dicament" style="stroke:#181818;stroke-width:1.0;"/><polygon fill="#000000" points="99.7082,685.5749,97.3021,694.7761,103.17,694.4331,99.7082,685.5749" style="stroke:#000000;stroke-width:1.0;"/><text fill="#000000" font-family="sans-serif" font-size="13" lengthAdjust="spacing" textLength="88" x="109" y="695.0669">autorise_pour</text><text fill="#000000" font-family="sans-serif" font-size="13" lengthAdjust="spacing" textLength="7" x="86.1214" y="623.194">*</text><text fill="#000000" font-family="sans-serif" font-size="13" lengthAdjust="spacing" textLength="7" x="91.9107" y="717.9321">*</text></g><!--link Personnel to CategorieAnimal--><g id="link_Personnel_CategorieAnimal"><path codeLine="100" d="M717.281,419.016 C754.138,450.594 813.669,501.602 854.024,536.178 " fill="none" id="Personnel-CategorieAnimal" style="stroke:#181818;stroke-width:1.0;"/><polygon fill="#000000" points="779.7969,460.8196,774.8404,452.7027,771.016,457.1663,779.7969,460.8196" style="stroke:#000000;stroke-width:1.0;"/><text fill="#000000" font-family="sans-serif" font-size="13" lengthAdjust="spacing" textLength="86" x="785" y="462.0669">Sp&#233;cialis&#233;_en</text><text fill="#000000" font-family="sans-serif" font-size="13" lengthAdjust="spacing" textLength="7" x="716.4233" y="438.773">*</text><text fill="#000000" font-family="sans-serif" font-size="13" lengthAdjust="spacing" textLength="24" x="820.575" y="525.476">0..1</text></g><!--link Animal to CategorieAnimal--><g id="link_Animal_CategorieAnimal"><path codeLine="101" d="M848.741,139 C857.314,160.397 865.848,184.869 871,208 C897.275,325.973 898.856,470.186 897.935,536.482 " fill="none" id="Animal-CategorieAnimal" style="stroke:#181818;stroke-width:1.0;"/><polygon fill="#000000" points="894.6141,326.5285,896.4198,317.191,890.5865,317.9129,894.6141,326.5285" style="stroke:#000000;stroke-width:1.0;"/><text fill="#000000" font-family="sans-serif" font-size="13" lengthAdjust="spacing" textLength="43" x="903" y="326.0669">Est_de</text><text fill="#000000" font-family="sans-serif" font-size="13" lengthAdjust="spacing" textLength="7" x="844.3924" y="158.6877">*</text><text fill="#000000" font-family="sans-serif" font-size="13" lengthAdjust="spacing" textLength="8" x="889.389" y="525.5516">1</text></g><!--link Animal to apoint28--><g id="link_Animal_apoint28"><path d="M891.467,139.097 C905.121,151.424 919.167,164.454 932,177 C958.592,202.998 988.727,237.312 994.144,243.517 " fill="none" id="Animal-apoint28" style="stroke:#181818;stroke-width:1.0;"/><text fill="#000000" font-family="sans-serif" font-size="13" lengthAdjust="spacing" textLength="7" x="891.7915" y="158.7953">*</text></g><!--link apoint28 to Client--><g id="link_apoint28_Client"><path d="M995.82,248.095 C1001.819,259.765 1039.23,332.542 1057.71,368.475 " fill="none" id="apoint28-Client" style="stroke:#181818;stroke-width:1.0;"/><text fill="#000000" font-family="sans-serif" font-size="13" lengthAdjust="spacing" textLength="7" x="1046.8316" y="357.4962">*</text></g><!--link apoint28 to AssociationAnimalClient--><g id="link_apoint28_AssociationAnimalClient"><path d="M997.48,245.5 C1008.83,245.5 1020.18,245.5 1031.53,245.5 " fill="none" id="apoint28-AssociationAnimalClient" style="stroke:#181818;stroke-width:1.0;stroke-dasharray:7.0,7.0;"/></g><!--link Animal to apoint34--><g id="link_Animal_apoint34"><path d="M737.384,122.219 C700.71,144.478 659.042,173.979 628,208 C617.09,219.956 609.96,238.934 608.348,243.492 " fill="none" id="Animal-apoint34" style="stroke:#181818;stroke-width:1.0;"/><text fill="#000000" font-family="sans-serif" font-size="13" lengthAdjust="spacing" textLength="7" x="722.6252" y="138.9968">*</text></g><!--link apoint34 to Personnel--><g id="link_apoint34_Personnel"><path d="M608.854,248.095 C614.626,258.881 648.34,321.872 668.597,359.721 " fill="none" id="apoint34-Personnel" style="stroke:#181818;stroke-width:1.0;"/><text fill="#000000" font-family="sans-serif" font-size="13" lengthAdjust="spacing" textLength="7" x="657.6983" y="349.1547">*</text></g><!--link apoint34 to AssociationAnimalPersonnel--><g id="link_apoint34_AssociationAnimalPersonnel"><path d="M610.203,245.5 C621.77,245.5 633.336,245.5 644.902,245.5 " fill="none" id="apoint34-AssociationAnimalPersonnel" style="stroke:#181818;stroke-width:1.0;stroke-dasharray:7.0,7.0;"/></g><!--SRC=[XLJRJXin47tVhx3oKgX8MbuZ52aggAK26a4gzGqPxoHOzTgBnqQAKlw7_OxziOxNUysbpTDcnkVCcJDZFyiKc91MA4WIeJWYcskPSRLD6FsqoTYKeRDIhwi0O5w-2nW6K-xWZaj4hglKvNnv5U4-MtW1roa5fNPjZCf0RgohmybRK_lI84gmjsMHIj68o02zXIMNIa54i8kxdpStirvsOMIA-ycqB9wyMrek7MIWNLzSwcrPm23NQ3HF2FQLEsdqrxBGPM6vskqPK5YPXoCBQmG99XN38qYMoCQFvVLjB1kQrSO1itBzx9XPxJPTdNgGmxO17GjjdGtwZOO2Knz2FkV8m37gIiZScXSVsphvzUF-D06Tib0sIVWJQUJ2iMZvDvzngTcHUUV4jXSCysRwqC1vQe5cEppkG7M1TjHVb0pgjgqfzVOX6Y4hw-CYndFRtZZx1LSalVvxd6815etMeFxFCXJJ0ckPkK7NDSUshsNXQ3aaUK73_yG88z5nxTuwZdgiMTSi-NbhL8_cDspUTfTgQE6B9r99jNfitustlPtjAjwN1NhbkCEvvcg34Ci67m_CuGfp482rDgZ-xMhhXaQJNnih8HfRWrnpDTqcRnQsQwgb3Da6rz02FGTisSAIscUWPY5URxC1ca3SBkyi352HhaQjoa99NNqAhYMDkVgsG8Qgo62DNeEtyP9B1Ew7nFLIZiT_Pit5c5PtpsisIxfrE78WgTiRdO_6uz77qUxLfhEqGbY-qwCxItQJ18Ye_ifCcJ0q-l3v3yJUo8UuJdYBs5V6sOgUmj15in97195Rj088ZtdOm8izzi-JoVbeRrMcx24FBnDN4ilY4O9VZLqLx23c2jrZPTRmB6cAeqfEOloi_d_A9fDZRyW-Hwkyesb3XvdQz5y0]--></g></svg>