<?xml version="1.0" encoding="us-ascii" standalone="no"?><svg xmlns="http://www.w3.org/2000/svg" xmlns:xlink="http://www.w3.org/1999/xlink" contentStyleType="text/css" height="950px" preserveAspectRatio="none" style="width:1372px;height:950px;background:#FFFFFF;" version="1.1" viewBox="0 0 1372 950" width="1372px" zoomAndPan="magnify"><defs/><g><!--class Animal--><g id="elem_Animal"><rect codeLine="3" fill="#F1F1F1" height="123.7813" id="Animal" rx="2.5" ry="2.5" style="stroke:#181818;stroke-width:0.5;" width="167" x="573.5" y="15"/><text fill="#000000" font-family="sans-serif" font-size="14" lengthAdjust="spacing" textLength="49" x="632.5" y="32.9951">Animal</text><line style="stroke:#181818;stroke-width:0.5;" x1="574.5" x2="739.5" y1="41.2969" y2="41.2969"/><text fill="#000000" font-family="sans-serif" font-size="14" lengthAdjust="spacing" textLength="87" x="579.5" y="58.292">nom : string</text><text fill="#000000" font-family="sans-serif" font-size="14" lengthAdjust="spacing" textLength="155" x="579.5" y="74.5889">dateNaissance : DATE</text><text fill="#000000" font-family="sans-serif" font-size="14" lengthAdjust="spacing" textLength="111" x="579.5" y="90.8857">numPuceId : int</text><text fill="#000000" font-family="sans-serif" font-size="14" lengthAdjust="spacing" textLength="136" x="579.5" y="107.1826">numPasseport : int</text><text fill="#000000" font-family="sans-serif" font-size="14" lengthAdjust="spacing" textLength="121" x="579.5" y="123.4795">taille : typeTaille</text><line style="stroke:#181818;stroke-width:0.5;" x1="574.5" x2="739.5" y1="130.7813" y2="130.7813"/></g><!--class DossierM?dical--><g id="elem_DossierM&#233;dical"><rect codeLine="12" fill="#F1F1F1" height="156.375" id="DossierM&#233;dical" rx="2.5" ry="2.5" style="stroke:#181818;stroke-width:0.5;" width="222" x="7" y="619"/><text fill="#000000" font-family="sans-serif" font-size="14" lengthAdjust="spacing" textLength="107" x="64.5" y="636.9951">DossierM&#233;dical</text><line style="stroke:#181818;stroke-width:0.5;" x1="8" x2="228" y1="645.2969" y2="645.2969"/><text fill="#000000" font-family="sans-serif" font-size="14" lengthAdjust="spacing" textLength="185" x="13" y="662.292">mesureTaille : int &lt;NULL&gt;</text><text fill="#000000" font-family="sans-serif" font-size="14" lengthAdjust="spacing" textLength="185" x="13" y="678.5889">mesurePoids : int &lt;NULL&gt;</text><text fill="#000000" font-family="sans-serif" font-size="14" lengthAdjust="spacing" textLength="177" x="13" y="694.8857">d&#233;butTraitement : DATE</text><text fill="#000000" font-family="sans-serif" font-size="14" lengthAdjust="spacing" textLength="156" x="13" y="711.1826">dur&#233;eTraitement : int</text><text fill="#000000" font-family="sans-serif" font-size="14" lengthAdjust="spacing" textLength="206" x="13" y="727.4795">observationG&#233;n&#233;rale : string</text><text fill="#000000" font-family="sans-serif" font-size="14" lengthAdjust="spacing" textLength="210" x="13" y="743.7764">descriptionProc&#233;dure : string</text><text fill="#000000" font-family="sans-serif" font-size="14" lengthAdjust="spacing" textLength="125" x="13" y="760.0732">saisie : DATETIME</text><line style="stroke:#181818;stroke-width:0.5;" x1="8" x2="228" y1="767.375" y2="767.375"/></g><g id="elem_GMN4"><path d="M264.5,677 L264.5,693 L229.1,697 L264.5,701 L264.5,717.2656 A0,0 0 0 0 264.5,717.2656 L537.5,717.2656 A0,0 0 0 0 537.5,717.2656 L537.5,687 L527.5,677 L264.5,677 A0,0 0 0 0 264.5,677 " fill="#FEFFDD" style="stroke:#181818;stroke-width:0.5;"/><path d="M527.5,677 L527.5,687 L537.5,687 L527.5,677 " fill="#FEFFDD" style="stroke:#181818;stroke-width:0.5;"/><text fill="#000000" font-family="sans-serif" font-size="13" lengthAdjust="spacing" textLength="248" x="270.5" y="694.0669">Si mesureTaille est NULL, mesurePoids</text><text fill="#000000" font-family="sans-serif" font-size="13" lengthAdjust="spacing" textLength="238" x="270.5" y="709.1997">ne l'est pas et r&#233;ciproquement (XOR)</text></g><!--class Humain--><g id="elem_Humain"><rect codeLine="28" fill="#F1F1F1" height="123.7813" id="Humain" rx="2.5" ry="2.5" style="stroke:#181818;stroke-width:0.5;" width="170" x="1195" y="635"/><text fill="#000000" font-family="sans-serif" font-size="14" font-style="italic" lengthAdjust="spacing" textLength="56" x="1252" y="652.9951">Humain</text><line style="stroke:#181818;stroke-width:0.5;" x1="1196" x2="1364" y1="661.2969" y2="661.2969"/><text fill="#000000" font-family="sans-serif" font-size="14" lengthAdjust="spacing" textLength="87" x="1201" y="678.292">nom : string</text><text fill="#000000" font-family="sans-serif" font-size="14" lengthAdjust="spacing" textLength="112" x="1201" y="694.5889">pr&#233;nom : string</text><text fill="#000000" font-family="sans-serif" font-size="14" lengthAdjust="spacing" textLength="158" x="1201" y="710.8857">date naissance : DATE</text><text fill="#000000" font-family="sans-serif" font-size="14" lengthAdjust="spacing" textLength="110" x="1201" y="727.1826">adresse : string</text><text fill="#000000" font-family="sans-serif" font-size="14" lengthAdjust="spacing" textLength="75" x="1201" y="743.4795">tel : string</text><line style="stroke:#181818;stroke-width:0.5;" x1="1196" x2="1364" y1="750.7813" y2="750.7813"/></g><!--class Client--><g id="elem_Client"><rect codeLine="36" fill="#F1F1F1" height="42.2969" id="Client" rx="2.5" ry="2.5" style="stroke:#181818;stroke-width:0.5;" width="49" x="975.5" y="428"/><text fill="#000000" font-family="sans-serif" font-size="14" lengthAdjust="spacing" textLength="43" x="978.5" y="445.9951">Client</text><line style="stroke:#181818;stroke-width:0.5;" x1="976.5" x2="1023.5" y1="454.2969" y2="454.2969"/><line style="stroke:#181818;stroke-width:0.5;" x1="976.5" x2="1023.5" y1="462.2969" y2="462.2969"/></g><!--class EstPoss?d?Par--><g id="elem_EstPoss&#233;d&#233;Par"><rect codeLine="40" fill="#F1F1F1" height="74.8906" id="EstPoss&#233;d&#233;Par" rx="2.5" ry="2.5" style="stroke:#181818;stroke-width:0.5;" width="111" x="897.5" y="220"/><text fill="#000000" font-family="sans-serif" font-size="14" lengthAdjust="spacing" textLength="105" x="900.5" y="237.9951">EstPoss&#233;d&#233;Par</text><line style="stroke:#181818;stroke-width:0.5;" x1="898.5" x2="1007.5" y1="246.2969" y2="246.2969"/><text fill="#000000" font-family="sans-serif" font-size="14" lengthAdjust="spacing" textLength="95" x="903.5" y="263.292">d&#233;but : DATE</text><text fill="#000000" font-family="sans-serif" font-size="14" lengthAdjust="spacing" textLength="71" x="903.5" y="279.5889">fin : DATE</text><line style="stroke:#181818;stroke-width:0.5;" x1="898.5" x2="1007.5" y1="286.8906" y2="286.8906"/></g><!--class EstSuiviPar--><g id="elem_EstSuiviPar"><rect codeLine="45" fill="#F1F1F1" height="74.8906" id="EstSuiviPar" rx="2.5" ry="2.5" style="stroke:#181818;stroke-width:0.5;" width="107" x="539.5" y="220"/><text fill="#000000" font-family="sans-serif" font-size="14" lengthAdjust="spacing" textLength="79" x="553.5" y="237.9951">EstSuiviPar</text><line style="stroke:#181818;stroke-width:0.5;" x1="540.5" x2="645.5" y1="246.2969" y2="246.2969"/><text fill="#000000" font-family="sans-serif" font-size="14" lengthAdjust="spacing" textLength="95" x="545.5" y="263.292">d&#233;but : DATE</text><text fill="#000000" font-family="sans-serif" font-size="14" lengthAdjust="spacing" textLength="71" x="545.5" y="279.5889">fin : DATE</text><line style="stroke:#181818;stroke-width:0.5;" x1="540.5" x2="645.5" y1="286.8906" y2="286.8906"/></g><!--class Personnel--><g id="elem_Personnel"><rect codeLine="50" fill="#F1F1F1" height="42.2969" id="Personnel" rx="2.5" ry="2.5" style="stroke:#181818;stroke-width:0.5;" width="76" x="461" y="500"/><text fill="#000000" font-family="sans-serif" font-size="14" font-style="italic" lengthAdjust="spacing" textLength="70" x="464" y="517.9951">Personnel</text><line style="stroke:#181818;stroke-width:0.5;" x1="462" x2="536" y1="526.2969" y2="526.2969"/><line style="stroke:#181818;stroke-width:0.5;" x1="462" x2="536" y1="534.2969" y2="534.2969"/></g><!--class Assistant--><g id="elem_Assistant"><rect codeLine="54" fill="#F1F1F1" height="42.2969" id="Assistant" rx="2.5" ry="2.5" style="stroke:#181818;stroke-width:0.5;" width="72" x="520" y="356"/><text fill="#000000" font-family="sans-serif" font-size="14" lengthAdjust="spacing" textLength="66" x="523" y="373.9951">Assistant</text><line style="stroke:#181818;stroke-width:0.5;" x1="521" x2="591" y1="382.2969" y2="382.2969"/><line style="stroke:#181818;stroke-width:0.5;" x1="521" x2="591" y1="390.2969" y2="390.2969"/></g><!--class V?t?rinaire--><g id="elem_V&#233;t&#233;rinaire"><rect codeLine="58" fill="#F1F1F1" height="42.2969" id="V&#233;t&#233;rinaire" rx="2.5" ry="2.5" style="stroke:#181818;stroke-width:0.5;" width="87" x="397.5" y="356"/><text fill="#000000" font-family="sans-serif" font-size="14" lengthAdjust="spacing" textLength="81" x="400.5" y="373.9951">V&#233;t&#233;rinaire</text><line style="stroke:#181818;stroke-width:0.5;" x1="398.5" x2="483.5" y1="382.2969" y2="382.2969"/><line style="stroke:#181818;stroke-width:0.5;" x1="398.5" x2="483.5" y1="390.2969" y2="390.2969"/></g><!--class M?dicament--><g id="elem_M&#233;dicament"><rect codeLine="62" fill="#F1F1F1" height="91.1875" id="M&#233;dicament" rx="2.5" ry="2.5" style="stroke:#181818;stroke-width:0.5;" width="222" x="329" y="852"/><text fill="#000000" font-family="sans-serif" font-size="14" lengthAdjust="spacing" textLength="89" x="395.5" y="869.9951">M&#233;dicament</text><line style="stroke:#181818;stroke-width:0.5;" x1="330" x2="550" y1="878.2969" y2="878.2969"/><text fill="#000000" font-family="sans-serif" font-size="14" lengthAdjust="spacing" textLength="160" x="335" y="895.292">nomMol : string {key}</text><text fill="#000000" font-family="sans-serif" font-size="14" lengthAdjust="spacing" textLength="137" x="335" y="911.5889">description : string</text><text fill="#000000" font-family="sans-serif" font-size="14" lengthAdjust="spacing" textLength="210" x="335" y="927.8857">quantit&#233;M&#233;dicamentJour : int</text><line style="stroke:#181818;stroke-width:0.5;" x1="330" x2="550" y1="935.1875" y2="935.1875"/></g><!--class R?sultatsAnalyse--><g id="elem_R&#233;sultatsAnalyse"><rect codeLine="68" fill="#F1F1F1" height="58.5938" id="R&#233;sultatsAnalyse" rx="2.5" ry="2.5" style="stroke:#181818;stroke-width:0.5;" width="128" x="54" y="868"/><text fill="#000000" font-family="sans-serif" font-size="14" lengthAdjust="spacing" textLength="122" x="57" y="885.9951">R&#233;sultatsAnalyse</text><line style="stroke:#181818;stroke-width:0.5;" x1="55" x2="181" y1="894.2969" y2="894.2969"/><text fill="#000000" font-family="sans-serif" font-size="14" lengthAdjust="spacing" textLength="81" x="60" y="911.292">lien : string</text><line style="stroke:#181818;stroke-width:0.5;" x1="55" x2="181" y1="918.5938" y2="918.5938"/></g><!--class Especes--><g id="elem_Especes"><rect codeLine="73" fill="#F1F1F1" height="74.8906" id="Especes" rx="2.5" ry="2.5" style="stroke:#181818;stroke-width:0.5;" width="297" x="572.5" y="659.5"/><text fill="#000000" font-family="sans-serif" font-size="14" lengthAdjust="spacing" textLength="59" x="691.5" y="677.4951">Especes</text><line style="stroke:#181818;stroke-width:0.5;" x1="573.5" x2="868.5" y1="685.7969" y2="685.7969"/><text fill="#000000" font-family="sans-serif" font-size="14" lengthAdjust="spacing" textLength="285" x="578.5" y="702.792">typeEspece : typeAnimal {key} : string</text><text fill="#000000" font-family="sans-serif" font-size="14" lengthAdjust="spacing" textLength="150" x="578.5" y="719.0889">intitulePrecis : string</text><line style="stroke:#181818;stroke-width:0.5;" x1="573.5" x2="868.5" y1="726.3906" y2="726.3906"/></g><path d="M904.5,672 L904.5,688.1328 L728.5,714.2422 L904.5,696.1328 L904.5,712.2656 A0,0 0 0 0 904.5,712.2656 L1159.5,712.2656 A0,0 0 0 0 1159.5,712.2656 L1159.5,682 L1149.5,672 L904.5,672 A0,0 0 0 0 904.5,672 " fill="#FEFFDD" style="stroke:#181818;stroke-width:0.5;"/><path d="M1149.5,672 L1149.5,682 L1159.5,682 L1149.5,672 " fill="#FEFFDD" style="stroke:#181818;stroke-width:0.5;"/><text fill="#000000" font-family="sans-serif" font-size="13" lengthAdjust="spacing" textLength="230" x="910.5" y="689.0669">Si typeEspece == 'Autre', ce champ</text><text fill="#000000" font-family="sans-serif" font-size="13" lengthAdjust="spacing" textLength="142" x="910.5" y="704.1997">ne peut pas &#234;tre NULL</text><!--class TypeTaille--><g id="elem_TypeTaille"><rect codeLine="83" fill="#F1F1F1" height="91.1875" id="TypeTaille" rx="2.5" ry="2.5" style="stroke:#181818;stroke-width:0.5;" width="80" x="776" y="31.5"/><text fill="#000000" font-family="sans-serif" font-size="14" lengthAdjust="spacing" textLength="74" x="779" y="49.4951">TypeTaille</text><line style="stroke:#181818;stroke-width:0.5;" x1="777" x2="855" y1="57.7969" y2="57.7969"/><text fill="#000000" font-family="sans-serif" font-size="14" lengthAdjust="spacing" textLength="46" x="782" y="74.792">petite</text><text fill="#000000" font-family="sans-serif" font-size="14" lengthAdjust="spacing" textLength="67" x="782" y="91.0889">moyenne</text><text fill="#000000" font-family="sans-serif" font-size="14" lengthAdjust="spacing" textLength="38" x="782" y="107.3857">autre</text><line style="stroke:#181818;stroke-width:0.5;" x1="777" x2="855" y1="114.6875" y2="114.6875"/></g><!--class TypeAnimal--><g id="elem_TypeAnimal"><rect codeLine="90" fill="#F1F1F1" height="140.0781" id="TypeAnimal" rx="2.5" ry="2.5" style="stroke:#181818;stroke-width:0.5;" width="91" x="891.5" y="7"/><text fill="#000000" font-family="sans-serif" font-size="14" lengthAdjust="spacing" textLength="85" x="894.5" y="24.9951">TypeAnimal</text><line style="stroke:#181818;stroke-width:0.5;" x1="892.5" x2="981.5" y1="33.2969" y2="33.2969"/><text fill="#000000" font-family="sans-serif" font-size="14" lengthAdjust="spacing" textLength="32" x="897.5" y="50.292">f&#233;lin</text><text fill="#000000" font-family="sans-serif" font-size="14" lengthAdjust="spacing" textLength="47" x="897.5" y="66.5889">canid&#233;</text><text fill="#000000" font-family="sans-serif" font-size="14" lengthAdjust="spacing" textLength="49" x="897.5" y="82.8857">reptile</text><text fill="#000000" font-family="sans-serif" font-size="14" lengthAdjust="spacing" textLength="56" x="897.5" y="99.1826">rongeur</text><text fill="#000000" font-family="sans-serif" font-size="14" lengthAdjust="spacing" textLength="45" x="897.5" y="115.4795">oiseau</text><text fill="#000000" font-family="sans-serif" font-size="14" lengthAdjust="spacing" textLength="38" x="897.5" y="131.7764">autre</text><line style="stroke:#181818;stroke-width:0.5;" x1="892.5" x2="981.5" y1="139.0781" y2="139.0781"/></g><ellipse cx="860" cy="257.5" fill="#181818" rx="2" ry="2" style="stroke:#181818;stroke-width:1.0;"/><ellipse cx="502" cy="257.5" fill="#181818" rx="2" ry="2" style="stroke:#181818;stroke-width:1.0;"/><!--link Client to Humain--><g id="link_Client_Humain"><path codeLine="100" d="M1022.91,470.131 C1063.4,505.704 1135.588,569.1211 1196.908,622.9991 " fill="none" id="Client-to-Humain" style="stroke:#181818;stroke-width:1.0;"/><polygon fill="none" points="1210.43,634.88,1200.8683,618.4918,1192.9477,627.5064,1210.43,634.88" style="stroke:#181818;stroke-width:1.0;"/><polygon fill="#000000" points="1112.7562,524.3665,1107.9009,516.1887,1104.0214,520.6044,1112.7562,524.3665" style="stroke:#000000;stroke-width:1.0;"/><text fill="#000000" font-family="sans-serif" font-size="13" lengthAdjust="spacing" textLength="43" x="1118" y="525.5669">est_un</text></g><!--link Personnel to Humain--><g id="link_Personnel_Humain"><path codeLine="101" d="M537.384,524.98 C662.793,535.103 1059.15,570.277 1177,619 C1187.32,623.265 1182.3005,619.2061 1192.0605,625.3551 " fill="none" id="Personnel-to-Humain" style="stroke:#181818;stroke-width:1.0;"/><polygon fill="none" points="1207.29,634.95,1195.2588,620.2786,1188.8622,630.4316,1207.29,634.95" style="stroke:#181818;stroke-width:1.0;"/><polygon fill="#000000" points="1061.9422,581.3242,1053.447,577.0484,1052.5562,582.8584,1061.9422,581.3242" style="stroke:#000000;stroke-width:1.0;"/><text fill="#000000" font-family="sans-serif" font-size="13" lengthAdjust="spacing" textLength="43" x="1066" y="585.0669">est_un</text></g><!--link Assistant to Personnel--><g id="link_Assistant_Personnel"><path codeLine="103" d="M547.954,398.044 C537.152,424.954 524.7693,455.8016 513.8943,482.8936 " fill="none" id="Assistant-to-Personnel" style="stroke:#181818;stroke-width:1.0;"/><polygon fill="none" points="507.189,499.598,519.4625,485.1287,508.3262,480.6584,507.189,499.598" style="stroke:#181818;stroke-width:1.0;"/><polygon fill="#000000" points="538.1374,453.7065,544.2343,446.4073,538.7795,444.2177,538.1374,453.7065" style="stroke:#000000;stroke-width:1.0;"/><text fill="#000000" font-family="sans-serif" font-size="13" lengthAdjust="spacing" textLength="43" x="549" y="453.5669">est_un</text></g><!--link V?t?rinaire to Personnel--><g id="link_V&#233;t&#233;rinaire_Personnel"><path codeLine="104" d="M440.852,398.321 C441.443,417.617 444.28,447.011 455,470 C460.082,480.899 455.901,478.1426 463.864,486.5266 " fill="none" id="V&#233;t&#233;rinaire-to-Personnel" style="stroke:#181818;stroke-width:1.0;"/><polygon fill="none" points="476.26,499.578,468.2144,482.3946,459.5135,490.6586,476.26,499.578" style="stroke:#181818;stroke-width:1.0;"/><polygon fill="#000000" points="461.2622,453.9045,461.8226,444.4104,456.1351,445.8942,461.2622,453.9045" style="stroke:#000000;stroke-width:1.0;"/><text fill="#000000" font-family="sans-serif" font-size="13" lengthAdjust="spacing" textLength="43" x="469" y="453.5669">est_un</text></g><!--link Animal to DossierM?dical--><g id="link_Animal_DossierM&#233;dical"><path codeLine="106" d="M573.261,88.916 C425.512,110.538 134,164.816 134,256.5 C134,256.5 134,256.5 134,522 C134,553.701 131.334,588.515 128.178,618.617 " fill="none" id="Animal-DossierM&#233;dical" style="stroke:#181818;stroke-width:1.0;"/><polygon fill="#000000" points="135.7835,380.8945,143.8523,375.8601,139.3522,372.0788,135.7835,380.8945" style="stroke:#000000;stroke-width:1.0;"/><text fill="#000000" font-family="sans-serif" font-size="13" lengthAdjust="spacing" textLength="54" x="148" y="381.5669">poss&#232;de</text><text fill="#000000" font-family="sans-serif" font-size="13" lengthAdjust="spacing" textLength="8" x="557.4467" y="86.3919">1</text><text fill="#000000" font-family="sans-serif" font-size="13" lengthAdjust="spacing" textLength="7" x="121.7728" y="608.0242">*</text></g><!--link DossierM?dical to M?dicament--><g id="link_DossierM&#233;dical_M&#233;dicament"><path codeLine="107" d="M229.265,766.59 C275.074,794.83 326.84,826.742 367.602,851.8696 " fill="none" id="DossierM&#233;dical-M&#233;dicament" style="stroke:#181818;stroke-width:1.0;"/><polygon fill="#000000" points="327.2562,816.1902,321.0989,808.9419,318.0144,813.9455,327.2562,816.1902" style="stroke:#000000;stroke-width:1.0;"/><text fill="#000000" font-family="sans-serif" font-size="13" lengthAdjust="spacing" textLength="52" x="332" y="818.0669">contient</text><text fill="#000000" font-family="sans-serif" font-size="13" lengthAdjust="spacing" textLength="7" x="236.9758" y="767.8204">*</text><text fill="#000000" font-family="sans-serif" font-size="13" lengthAdjust="spacing" textLength="7" x="348.9801" y="840.7972">*</text></g><!--link DossierM?dical to R?sultatsAnalyse--><g id="link_DossierM&#233;dical_R&#233;sultatsAnalyse"><path codeLine="108" d="M118,775.029 C118,807.505 118,843.3264 118,867.5974 " fill="none" id="DossierM&#233;dical-R&#233;sultatsAnalyse" style="stroke:#181818;stroke-width:1.0;"/><polygon fill="#000000" points="123,818.5664,125.9389,809.5213,120.0611,809.5213,123,818.5664" style="stroke:#000000;stroke-width:1.0;"/><text fill="#000000" font-family="sans-serif" font-size="13" lengthAdjust="spacing" textLength="52" x="132" y="818.0669">contient</text><text fill="#000000" font-family="sans-serif" font-size="13" lengthAdjust="spacing" textLength="7" x="110.6555" y="795.5032">*</text><text fill="#000000" font-family="sans-serif" font-size="13" lengthAdjust="spacing" textLength="7" x="110.2781" y="857.0056">*</text></g><!--link Personnel to DossierM?dical--><g id="link_Personnel_DossierM&#233;dical"><path codeLine="109" d="M460.575,534.497 C410.408,551.328 320.35,583.315 247,619 C241.137,621.853 235.188,624.882 229.227,628.027 " fill="none" id="Personnel-DossierM&#233;dical" style="stroke:#181818;stroke-width:1.0;"/><polygon fill="#000000" points="356.3645,582.4405,365.8517,581.7749,363.6487,576.3256,356.3645,582.4405" style="stroke:#000000;stroke-width:1.0;"/><text fill="#000000" font-family="sans-serif" font-size="13" lengthAdjust="spacing" textLength="36" x="370" y="585.0669">a_fait</text><text fill="#000000" font-family="sans-serif" font-size="13" lengthAdjust="spacing" textLength="7" x="446.1071" y="532.6175">*</text><text fill="#000000" font-family="sans-serif" font-size="13" lengthAdjust="spacing" textLength="7" x="236.9352" y="619.9477">*</text></g><!--link Especes to M?dicament--><g id="link_Especes_M&#233;dicament"><path codeLine="111" d="M669.133,734.639 C622.272,767.742 553.178,816.55 503.124,851.9085 " fill="none" id="Especes-M&#233;dicament" style="stroke:#181818;stroke-width:1.0;"/><polygon fill="#000000" points="573.0838,810.6816,564.0004,813.4999,567.3918,818.3007,573.0838,810.6816" style="stroke:#000000;stroke-width:1.0;"/><text fill="#000000" font-family="sans-serif" font-size="13" lengthAdjust="spacing" textLength="88" x="578" y="818.0669">autorise_pour</text><text fill="#000000" font-family="sans-serif" font-size="13" lengthAdjust="spacing" textLength="7" x="652.6168" y="754.485">*</text><text fill="#000000" font-family="sans-serif" font-size="13" lengthAdjust="spacing" textLength="7" x="505.2539" y="840.8421">*</text></g><!--link Personnel to Especes--><g id="link_Personnel_Especes"><path codeLine="112" d="M492.419,542.011 C489.032,556.205 487.231,575.12 496,589 C498.202,592.485 577.624,629.789 641.485,659.382 " fill="none" id="Personnel-Especes" style="stroke:#181818;stroke-width:1.0;"/><polygon fill="#000000" points="504.9284,583.6595,499.6399,575.7549,496.0037,580.3731,504.9284,583.6595" style="stroke:#000000;stroke-width:1.0;"/><text fill="#000000" font-family="sans-serif" font-size="13" lengthAdjust="spacing" textLength="86" x="510" y="585.0669">Sp&#233;cialis&#233;_en</text><text fill="#000000" font-family="sans-serif" font-size="13" lengthAdjust="spacing" textLength="7" x="482.4577" y="562.4289">*</text><text fill="#000000" font-family="sans-serif" font-size="13" lengthAdjust="spacing" textLength="24" x="601.1839" y="648.4338">0..1</text></g><!--link Animal to Especes--><g id="link_Animal_Especes"><path codeLine="113" d="M690.687,139.28 C706.105,172.87 721,215.842 721,256.5 C721,256.5 721,256.5 721,522 C721,569.427 721,624.126 721,659.339 " fill="none" id="Animal-Especes" style="stroke:#181818;stroke-width:1.0;"/><polygon fill="#000000" points="726.2909,382.0579,728.6986,372.8572,722.8307,373.1992,726.2909,382.0579" style="stroke:#000000;stroke-width:1.0;"/><text fill="#000000" font-family="sans-serif" font-size="13" lengthAdjust="spacing" textLength="43" x="735" y="381.5669">Est_de</text><text fill="#000000" font-family="sans-serif" font-size="13" lengthAdjust="spacing" textLength="7" x="686.9887" y="158.9983">*</text><text fill="#000000" font-family="sans-serif" font-size="13" lengthAdjust="spacing" textLength="8" x="712.2875" y="648.3832">1</text></g><!--link Animal to apoint33--><g id="link_Animal_apoint33"><path d="M726.577,139.18 C781.21,187.219 849.58,247.337 858.924,255.554 " fill="none" id="Animal-apoint33" style="stroke:#181818;stroke-width:1.0;"/><polygon fill="#000000" points="790.7549,186.8017,785.9029,178.6218,782.0216,183.0359,790.7549,186.8017" style="stroke:#000000;stroke-width:1.0;"/><text fill="#000000" font-family="sans-serif" font-size="13" lengthAdjust="spacing" textLength="7" x="726.8042" y="158.8874">*</text></g><!--link apoint33 to Client--><g id="link_apoint33_Client"><path d="M860.556,259.675 C862.767,264.312 871.246,281.731 880,295 C912.904,344.875 957.673,398.923 982.171,427.531 " fill="none" id="apoint33-Client" style="stroke:#181818;stroke-width:1.0;"/><text fill="#000000" font-family="sans-serif" font-size="13" lengthAdjust="spacing" textLength="7" x="969.4388" y="416.7904">*</text></g><!--link apoint33 to EstPoss?d?Par--><g id="link_apoint33_EstPoss&#233;d&#233;Par"><path d="M862.18,257.5 C873.887,257.5 885.594,257.5 897.302,257.5 " fill="none" id="apoint33-EstPoss&#233;d&#233;Par" style="stroke:#181818;stroke-width:1.0;stroke-dasharray:7.0,7.0;"/></g><!--link Animal to apoint39--><g id="link_Animal_apoint39"><path d="M592.116,139.215 C568.55,163.191 542.661,191.704 522,220 C512.626,232.838 504.593,250.567 502.519,255.299 " fill="none" id="Animal-apoint39" style="stroke:#181818;stroke-width:1.0;"/><polygon fill="#000000" points="557.945,187.4581,565.7981,182.0935,561.145,178.5021,557.945,187.4581" style="stroke:#000000;stroke-width:1.0;"/><text fill="#000000" font-family="sans-serif" font-size="13" lengthAdjust="spacing" textLength="7" x="577.6365" y="158.9262">*</text></g><!--link apoint39 to V?t?rinaire--><g id="link_apoint39_V&#233;t&#233;rinaire"><path d="M501.315,259.82 C496.498,269.098 467.447,325.058 451.486,355.801 " fill="none" id="apoint39-V&#233;t&#233;rinaire" style="stroke:#181818;stroke-width:1.0;"/><text fill="#000000" font-family="sans-serif" font-size="13" lengthAdjust="spacing" textLength="7" x="446.4508" y="344.7732">*</text></g><!--link apoint39 to EstSuiviPar--><g id="link_apoint39_EstSuiviPar"><path d="M504.133,257.5 C515.82,257.5 527.507,257.5 539.194,257.5 " fill="none" id="apoint39-EstSuiviPar" style="stroke:#181818;stroke-width:1.0;stroke-dasharray:7.0,7.0;"/></g><!--link V?t?rinaire to DossierM?dical--><g id="link_V&#233;t&#233;rinaire_DossierM&#233;dical"><path codeLine="121" d="M411.471,398.137 C378.773,421.057 325.238,460.463 284,500 C245.857,536.57 207.458,581.28 177.212,618.759 " fill="none" id="V&#233;t&#233;rinaire-DossierM&#233;dical" style="stroke:#181818;stroke-width:1.0;"/><polygon fill="#000000" points="285.3601,524.4944,293.9597,520.4326,289.9298,516.1536,285.3601,524.4944" style="stroke:#000000;stroke-width:1.0;"/><text fill="#000000" font-family="sans-serif" font-size="13" lengthAdjust="spacing" textLength="144" x="298" y="525.5669">traitement_precrit_par</text><text fill="#000000" font-family="sans-serif" font-size="13" lengthAdjust="spacing" textLength="8" x="394.041" y="418.235">1</text><text fill="#000000" font-family="sans-serif" font-size="13" lengthAdjust="spacing" textLength="7" x="175.348" y="607.9105">*</text></g><!--SRC=[ZLNRJjj047ttLwpo0bH9L5uZY1GLr581ZI2j-XOjzWH6jNVDNf2YbF-f-nl-iSvwVLk7eEObzixjp9cpuoTCWCMeuXIYA4wvrcmXCEFfBcBq4p9ZCwQDGl5O7IJSm2r7hRc8WKmNYzMbzxJPqiPmbT0X2jEUKKR8fJAzOyCnJLsmsUQmgbwYwBKfVo6rHb0tPP5WtE38G5jL-_fCxEps-_Nrl6TTIapqlZ4fYmThLegZWGo4wODEh2eB26mDIFcWGRrmWr9yBWjH5efNfVjSW8uLvivbgMHCW0b5wAA9AcnuMbtT-BAkMI4DC8MFJuR9pR3fokiUmxP16-RQ6WVzUgA1fKVEddFDm33gAiPSoMVhsph- -Utk90AHC5SsYlW3OUInOPxoBpRZADY1aUUKxKqTCF6M47YYW6OUkXj8kuDsr9zITEXsBId- -5AR9V51N9J5agjTRupzGXk2NB_sG-yjlk1_XJLL1smiGMaf124U0blGaBJXRq3-KHQ698B424bWQAt7cdND4fytigE4xNx1zdKegf32Pqk5aQhqidsLLjMQROlTbOMsgU56BmHFjnfyHKTrC8AMiHnYq3KkToFzINqz_JBm-48ywD3O59OAOjH1wb3RTONPB8neDDuhUNxEZXRMA3WQCtgDdtYMjmBFmNfzbt_9exe9FKK3xHgswlQ9RoS7gWX-HyWjq52zH5qD1xIDyctMKPkoI55KZp4NI1AgdXNGL5AVGKdn25RvJO4Qk0qJrygUJ7xFczirSnTuRGMRHvt23ZX4dT8gZowWvnHgxh1VLCzmT3gQJ4OVHiDbGxwvksv_w4imZuP62l1HVH7FM2nfcExndOWz9OPn7TWsOXyPNszeERik6g4U04JKIqMJMEVkJfpjPVyudPwEMhNFs7tkTYHFaVRC6XnF3KsLU-1BMsLTaHFw48PwpZEo7NlRk3uxOTFfS9FjnuSp3D84fYPRizoYmVJVcQrflsxhd2wUGlhdYit_0G00]--></g></svg>